<mxfile host="Electron" modified="2024-06-26T15:25:30.410Z" agent="Mozilla/5.0 (Windows NT 10.0; Win64; x64) AppleWebKit/537.36 (KHTML, like Gecko) draw.io/24.5.3 Chrome/124.0.6367.207 Electron/30.0.6 Safari/537.36" etag="UQKHzdc6en5qi5fcNdbL" version="24.5.3" type="device">
  <diagram name="ページ1" id="hZMQT9XTN3slPXorchq0">
    <mxGraphModel dx="1195" dy="697" grid="1" gridSize="10" guides="1" tooltips="1" connect="1" arrows="1" fold="1" page="1" pageScale="1" pageWidth="1169" pageHeight="827" math="1" shadow="0">
      <root>
        <mxCell id="0" />
        <mxCell id="1" parent="0" />
        <mxCell id="7c7io6O_hfaaaX2Ua8ox-1" value="" style="verticalLabelPosition=bottom;shadow=0;dashed=0;align=center;html=1;verticalAlign=top;shape=mxgraph.electrical.transistors.nmos;pointerEvents=1;" vertex="1" parent="1">
          <mxGeometry x="340" y="230" width="60" height="100" as="geometry" />
        </mxCell>
        <mxCell id="7c7io6O_hfaaaX2Ua8ox-2" value="" style="verticalLabelPosition=bottom;shadow=0;dashed=0;align=center;fillColor=strokeColor;html=1;verticalAlign=top;strokeWidth=1;shape=mxgraph.electrical.miscellaneous.monocell_battery;direction=north;" vertex="1" parent="1">
          <mxGeometry x="250" y="350" width="60" height="100" as="geometry" />
        </mxCell>
        <mxCell id="7c7io6O_hfaaaX2Ua8ox-3" value="" style="pointerEvents=1;verticalLabelPosition=bottom;shadow=0;dashed=0;align=center;html=1;verticalAlign=top;shape=mxgraph.electrical.signal_sources.source;aspect=fixed;points=[[0.5,0,0],[1,0.5,0],[0.5,1,0],[0,0.5,0]];elSignalType=ac;" vertex="1" parent="1">
          <mxGeometry x="250" y="310" width="60" height="60" as="geometry" />
        </mxCell>
        <mxCell id="7c7io6O_hfaaaX2Ua8ox-4" value="" style="pointerEvents=1;verticalLabelPosition=bottom;shadow=0;dashed=0;align=center;html=1;verticalAlign=top;shape=mxgraph.electrical.resistors.resistor_1;direction=south;" vertex="1" parent="1">
          <mxGeometry x="390" y="330" width="20" height="100" as="geometry" />
        </mxCell>
        <mxCell id="7c7io6O_hfaaaX2Ua8ox-5" value="" style="verticalLabelPosition=bottom;shadow=0;dashed=0;align=center;fillColor=strokeColor;html=1;verticalAlign=top;strokeWidth=1;shape=mxgraph.electrical.miscellaneous.monocell_battery;direction=north;" vertex="1" parent="1">
          <mxGeometry x="150" y="290" width="60" height="100" as="geometry" />
        </mxCell>
        <mxCell id="7c7io6O_hfaaaX2Ua8ox-6" value="" style="pointerEvents=1;verticalLabelPosition=bottom;shadow=0;dashed=0;align=center;html=1;verticalAlign=top;shape=mxgraph.electrical.signal_sources.signal_ground;fontFamily=Helvetica;fontSize=24;fontColor=default;" vertex="1" parent="1">
          <mxGeometry x="377.5" y="470" width="45" height="30" as="geometry" />
        </mxCell>
        <mxCell id="7c7io6O_hfaaaX2Ua8ox-8" value="" style="shape=waypoint;sketch=0;fillStyle=solid;size=6;pointerEvents=1;points=[];fillColor=none;resizable=0;rotatable=0;perimeter=centerPerimeter;snapToPoint=1;fontFamily=Helvetica;fontSize=11;fontColor=default;" vertex="1" parent="1">
          <mxGeometry x="390" y="450" width="20" height="20" as="geometry" />
        </mxCell>
        <mxCell id="7c7io6O_hfaaaX2Ua8ox-9" style="edgeStyle=orthogonalEdgeStyle;rounded=0;orthogonalLoop=1;jettySize=auto;html=1;exitX=1;exitY=0.5;exitDx=0;exitDy=0;exitPerimeter=0;entryX=0.558;entryY=-0.114;entryDx=0;entryDy=0;entryPerimeter=0;endArrow=none;endFill=0;" edge="1" parent="1" source="7c7io6O_hfaaaX2Ua8ox-4" target="7c7io6O_hfaaaX2Ua8ox-8">
          <mxGeometry relative="1" as="geometry" />
        </mxCell>
        <mxCell id="7c7io6O_hfaaaX2Ua8ox-10" style="edgeStyle=orthogonalEdgeStyle;rounded=0;orthogonalLoop=1;jettySize=auto;html=1;exitX=0.5;exitY=0;exitDx=0;exitDy=0;exitPerimeter=0;entryX=0.739;entryY=1.081;entryDx=0;entryDy=0;entryPerimeter=0;strokeColor=default;align=center;verticalAlign=middle;fontFamily=Helvetica;fontSize=11;fontColor=default;labelBackgroundColor=default;endArrow=none;endFill=0;" edge="1" parent="1" source="7c7io6O_hfaaaX2Ua8ox-6" target="7c7io6O_hfaaaX2Ua8ox-8">
          <mxGeometry relative="1" as="geometry" />
        </mxCell>
        <mxCell id="7c7io6O_hfaaaX2Ua8ox-11" value="" style="shape=waypoint;sketch=0;fillStyle=solid;size=6;pointerEvents=1;points=[];fillColor=none;resizable=0;rotatable=0;perimeter=centerPerimeter;snapToPoint=1;fontFamily=Helvetica;fontSize=11;fontColor=default;" vertex="1" parent="1">
          <mxGeometry x="270" y="450" width="20" height="20" as="geometry" />
        </mxCell>
        <mxCell id="7c7io6O_hfaaaX2Ua8ox-12" style="edgeStyle=orthogonalEdgeStyle;rounded=0;orthogonalLoop=1;jettySize=auto;html=1;exitX=0;exitY=0.5;exitDx=0;exitDy=0;exitPerimeter=0;entryX=0.586;entryY=0.067;entryDx=0;entryDy=0;entryPerimeter=0;strokeColor=default;align=center;verticalAlign=middle;fontFamily=Helvetica;fontSize=11;fontColor=default;labelBackgroundColor=default;endArrow=none;endFill=0;" edge="1" parent="1" source="7c7io6O_hfaaaX2Ua8ox-2" target="7c7io6O_hfaaaX2Ua8ox-11">
          <mxGeometry relative="1" as="geometry" />
        </mxCell>
        <mxCell id="7c7io6O_hfaaaX2Ua8ox-13" style="edgeStyle=orthogonalEdgeStyle;rounded=0;orthogonalLoop=1;jettySize=auto;html=1;exitX=0;exitY=0.5;exitDx=0;exitDy=0;exitPerimeter=0;entryX=0.031;entryY=0.664;entryDx=0;entryDy=0;entryPerimeter=0;strokeColor=default;align=center;verticalAlign=middle;fontFamily=Helvetica;fontSize=11;fontColor=default;labelBackgroundColor=default;endArrow=none;endFill=0;" edge="1" parent="1" source="7c7io6O_hfaaaX2Ua8ox-5" target="7c7io6O_hfaaaX2Ua8ox-11">
          <mxGeometry relative="1" as="geometry">
            <Array as="points">
              <mxPoint x="180" y="460" />
            </Array>
          </mxGeometry>
        </mxCell>
        <mxCell id="7c7io6O_hfaaaX2Ua8ox-14" style="edgeStyle=orthogonalEdgeStyle;rounded=0;orthogonalLoop=1;jettySize=auto;html=1;entryX=-0.108;entryY=0.539;entryDx=0;entryDy=0;entryPerimeter=0;strokeColor=default;align=center;verticalAlign=middle;fontFamily=Helvetica;fontSize=11;fontColor=default;labelBackgroundColor=default;endArrow=none;endFill=0;" edge="1" parent="1" source="7c7io6O_hfaaaX2Ua8ox-11" target="7c7io6O_hfaaaX2Ua8ox-8">
          <mxGeometry relative="1" as="geometry" />
        </mxCell>
        <mxCell id="7c7io6O_hfaaaX2Ua8ox-15" style="edgeStyle=orthogonalEdgeStyle;rounded=0;orthogonalLoop=1;jettySize=auto;html=1;exitX=1;exitY=1;exitDx=0;exitDy=0;exitPerimeter=0;entryX=0;entryY=0.5;entryDx=0;entryDy=0;entryPerimeter=0;strokeColor=default;align=center;verticalAlign=middle;fontFamily=Helvetica;fontSize=11;fontColor=default;labelBackgroundColor=default;endArrow=none;endFill=0;" edge="1" parent="1" source="7c7io6O_hfaaaX2Ua8ox-1" target="7c7io6O_hfaaaX2Ua8ox-4">
          <mxGeometry relative="1" as="geometry" />
        </mxCell>
        <mxCell id="7c7io6O_hfaaaX2Ua8ox-16" style="edgeStyle=orthogonalEdgeStyle;rounded=0;orthogonalLoop=1;jettySize=auto;html=1;exitX=0.5;exitY=0;exitDx=0;exitDy=0;exitPerimeter=0;entryX=0;entryY=0.5;entryDx=0;entryDy=0;entryPerimeter=0;strokeColor=default;align=center;verticalAlign=middle;fontFamily=Helvetica;fontSize=11;fontColor=default;labelBackgroundColor=default;endArrow=none;endFill=0;" edge="1" parent="1" source="7c7io6O_hfaaaX2Ua8ox-3" target="7c7io6O_hfaaaX2Ua8ox-1">
          <mxGeometry relative="1" as="geometry" />
        </mxCell>
        <mxCell id="7c7io6O_hfaaaX2Ua8ox-17" style="edgeStyle=orthogonalEdgeStyle;rounded=0;orthogonalLoop=1;jettySize=auto;html=1;exitX=1;exitY=0.5;exitDx=0;exitDy=0;exitPerimeter=0;entryX=1;entryY=0;entryDx=0;entryDy=0;entryPerimeter=0;strokeColor=default;align=center;verticalAlign=middle;fontFamily=Helvetica;fontSize=11;fontColor=default;labelBackgroundColor=default;endArrow=none;endFill=0;" edge="1" parent="1" source="7c7io6O_hfaaaX2Ua8ox-5" target="7c7io6O_hfaaaX2Ua8ox-1">
          <mxGeometry relative="1" as="geometry" />
        </mxCell>
        <mxCell id="7c7io6O_hfaaaX2Ua8ox-18" value="&lt;span style=&quot;font-size: 24px;&quot;&gt;`1.7 V`&lt;/span&gt;" style="text;html=1;align=center;verticalAlign=middle;resizable=0;points=[];autosize=1;strokeColor=none;fillColor=none;fontSize=11;fontFamily=Helvetica;fontColor=default;labelBackgroundColor=default;" vertex="1" parent="1">
          <mxGeometry x="80" y="350" width="100" height="40" as="geometry" />
        </mxCell>
        <mxCell id="7c7io6O_hfaaaX2Ua8ox-19" value="&lt;span style=&quot;font-size: 24px;&quot;&gt;`1.15 V`&lt;/span&gt;" style="text;html=1;align=center;verticalAlign=middle;resizable=0;points=[];autosize=1;strokeColor=none;fillColor=none;fontSize=11;fontFamily=Helvetica;fontColor=default;labelBackgroundColor=default;" vertex="1" parent="1">
          <mxGeometry x="180" y="414" width="110" height="40" as="geometry" />
        </mxCell>
        <mxCell id="7c7io6O_hfaaaX2Ua8ox-20" value="&lt;span style=&quot;font-size: 24px;&quot;&gt;`v_{i n}`&lt;/span&gt;" style="text;html=1;align=center;verticalAlign=middle;resizable=0;points=[];autosize=1;strokeColor=none;fillColor=none;fontSize=11;fontFamily=Helvetica;fontColor=default;labelBackgroundColor=default;" vertex="1" parent="1">
          <mxGeometry x="200" y="270" width="110" height="40" as="geometry" />
        </mxCell>
        <mxCell id="7c7io6O_hfaaaX2Ua8ox-21" value="&lt;span style=&quot;font-size: 24px;&quot;&gt;`50 \Omega`&lt;/span&gt;" style="text;html=1;align=center;verticalAlign=middle;resizable=0;points=[];autosize=1;strokeColor=none;fillColor=none;fontSize=11;fontFamily=Helvetica;fontColor=default;labelBackgroundColor=default;" vertex="1" parent="1">
          <mxGeometry x="370" y="360" width="160" height="40" as="geometry" />
        </mxCell>
        <mxCell id="7c7io6O_hfaaaX2Ua8ox-22" value="" style="verticalLabelPosition=bottom;shadow=0;dashed=0;align=center;html=1;verticalAlign=top;strokeWidth=1;shape=ellipse;perimeter=ellipsePerimeter;fontFamily=Helvetica;fontSize=11;fontColor=default;aspect=fixed;labelBackgroundColor=default;" vertex="1" parent="1">
          <mxGeometry x="480" y="317.00000000000006" width="6" height="6" as="geometry" />
        </mxCell>
        <mxCell id="7c7io6O_hfaaaX2Ua8ox-24" style="edgeStyle=orthogonalEdgeStyle;rounded=0;orthogonalLoop=1;jettySize=auto;html=1;entryX=0;entryY=0.5;entryDx=0;entryDy=0;strokeColor=default;align=center;verticalAlign=middle;fontFamily=Helvetica;fontSize=11;fontColor=default;labelBackgroundColor=default;endArrow=none;endFill=0;" edge="1" parent="1" source="7c7io6O_hfaaaX2Ua8ox-23" target="7c7io6O_hfaaaX2Ua8ox-22">
          <mxGeometry relative="1" as="geometry" />
        </mxCell>
        <mxCell id="7c7io6O_hfaaaX2Ua8ox-23" value="" style="shape=waypoint;sketch=0;fillStyle=solid;size=6;pointerEvents=1;points=[];fillColor=none;resizable=0;rotatable=0;perimeter=centerPerimeter;snapToPoint=1;fontFamily=Helvetica;fontSize=11;fontColor=default;labelBackgroundColor=default;" vertex="1" parent="1">
          <mxGeometry x="390" y="310" width="20" height="20" as="geometry" />
        </mxCell>
        <mxCell id="7c7io6O_hfaaaX2Ua8ox-25" value="&lt;span style=&quot;font-size: 24px;&quot;&gt;`output`&lt;/span&gt;" style="text;html=1;align=center;verticalAlign=middle;resizable=0;points=[];autosize=1;strokeColor=none;fillColor=none;fontSize=11;fontFamily=Helvetica;fontColor=default;labelBackgroundColor=default;" vertex="1" parent="1">
          <mxGeometry x="440" y="277" width="110" height="40" as="geometry" />
        </mxCell>
      </root>
    </mxGraphModel>
  </diagram>
</mxfile>
